<?xml version="1.0" standalone="no"?>
<!DOCTYPE svg PUBLIC "-//W3C//DTD SVG 20010904//EN"
 "http://www.w3.org/TR/2001/REC-SVG-20010904/DTD/svg10.dtd">
<svg version="1.0" xmlns="http://www.w3.org/2000/svg"
 width="200.000000pt" height="202.000000pt" viewBox="0 0 200.000000 202.000000"
 preserveAspectRatio="xMidYMid meet">

<g transform="translate(0.000000,202.000000) scale(0.100000,-0.100000)"
fill="#000000" stroke="none">
<path d="M919 2006 c-4 -3 -98 -15 -127 -16 -10 0 -10 -3 2 -15 9 -9 33 -15
60 -15 43 0 62 -13 34 -23 -8 -2 0 -16 21 -36 38 -36 35 -47 -15 -42 -19 1
-34 -2 -34 -8 0 -21 -51 -11 -77 15 -14 14 -22 28 -19 31 3 4 14 -4 25 -15 19
-23 51 -30 51 -12 0 6 14 10 30 10 17 0 30 3 30 6 0 11 -29 34 -44 34 -9 0
-16 5 -16 10 0 6 -22 10 -50 10 -30 0 -50 4 -50 11 0 22 -84 -1 -185 -51 -391
-191 -614 -628 -540 -1054 95 -544 613 -914 1149 -821 421 74 747 400 821 821
72 415 -143 850 -517 1044 -43 23 -83 37 -92 34 -9 -3 -16 -1 -16 5 0 6 -8 11
-18 11 -10 0 -23 5 -30 12 -9 9 -12 9 -12 0 0 -8 -20 -12 -60 -12 -33 0 -60
-4 -60 -10 0 -5 -11 -10 -24 -10 -13 0 -27 -7 -30 -16 -9 -23 -8 -24 14 -24
11 0 20 -4 20 -10 0 -18 35 -11 50 10 15 21 50 28 50 10 0 -5 -8 -10 -18 -10
-10 0 -24 -9 -32 -20 -15 -21 -70 -28 -70 -10 0 6 -13 10 -30 10 -16 0 -30 -4
-30 -10 0 -5 -4 -10 -10 -10 -5 0 -10 9 -10 19 0 11 -5 21 -12 23 -9 3 -9 6 0
12 7 4 12 2 12 -3 0 -16 29 -13 46 3 16 17 19 46 4 46 -5 0 -10 5 -10 10 0 6
27 10 60 10 43 0 60 4 60 13 0 21 -281 51 -301 33z m-299 -92 c0 -3 -7 -12
-15 -21 -20 -19 -32 -10 -14 11 14 15 29 21 29 10z m787 -9 c8 -9 13 -19 10
-22 -6 -5 -37 21 -37 31 0 10 11 6 27 -9z m-707 -9 c0 -3 -4 -8 -10 -11 -5 -3
-10 -1 -10 4 0 6 5 11 10 11 6 0 10 -2 10 -4z m640 -6 c0 -5 -4 -10 -10 -10
-5 0 -10 5 -10 10 0 6 5 10 10 10 6 0 10 -4 10 -10z m-620 -60 c0 -21 -5 -30
-16 -30 -20 0 -49 29 -39 38 4 4 10 1 12 -5 7 -20 23 -15 23 7 0 11 5 20 10
20 6 0 10 -13 10 -30z m580 14 c0 -8 -4 -12 -10 -9 -5 3 -10 10 -10 16 0 5 5
9 10 9 6 0 10 -7 10 -16z m140 6 c0 -5 -4 -10 -10 -10 -5 0 -10 5 -10 10 0 6
5 10 10 10 6 0 10 -4 10 -10z m-100 -16 c0 -3 -7 -12 -15 -21 -20 -19 -32 -10
-14 11 14 15 29 21 29 10z m-280 -24 c0 -5 -4 -10 -10 -10 -5 0 -10 5 -10 10
0 6 5 10 10 10 6 0 10 -4 10 -10z m-180 -20 c0 -5 -9 -10 -20 -10 -11 0 -20 5
-20 10 0 6 9 10 20 10 11 0 20 -4 20 -10z m300 0 c0 -5 -9 -10 -20 -10 -11 0
-20 5 -20 10 0 6 9 10 20 10 11 0 20 -4 20 -10z m-480 -30 c0 -16 7 -20 30
-20 17 0 30 -4 30 -10 0 -5 -13 -10 -30 -10 -16 0 -30 5 -30 10 0 6 -6 10 -14
10 -9 0 -12 7 -9 20 3 11 9 20 14 20 5 0 9 -9 9 -20z m640 -12 c0 -5 -9 -8
-20 -8 -11 0 -20 -4 -20 -10 0 -5 -7 -10 -16 -10 -20 0 -49 29 -39 38 4 4 10
1 12 -5 7 -20 37 -15 53 7 10 14 16 16 22 7 4 -6 8 -15 8 -19z m-740 2 c0 -5
-4 -10 -10 -10 -5 0 -10 5 -10 10 0 6 5 10 10 10 6 0 10 -4 10 -10z m540 0 c0
-5 -4 -10 -10 -10 -5 0 -10 5 -10 10 0 6 5 10 10 10 6 0 10 -4 10 -10z m-454
-44 c8 -8 14 -18 14 -23 0 -4 22 -6 50 -5 50 4 50 4 50 -26 0 -28 -3 -31 -30
-30 -21 1 -29 5 -26 14 3 8 0 11 -10 7 -7 -3 -14 0 -14 6 0 6 -9 11 -21 11
-11 0 -17 5 -14 10 3 6 -1 10 -9 10 -9 0 -16 -4 -16 -10 0 -5 -9 -10 -20 -10
-13 0 -20 7 -20 20 0 11 5 20 10 20 6 0 10 -4 10 -10 0 -5 5 -10 10 -10 6 0
10 9 10 20 0 24 6 25 26 6z m254 4 c0 -5 -4 -10 -10 -10 -5 0 -10 5 -10 10 0
6 5 10 10 10 6 0 10 -4 10 -10z m100 0 c0 -5 -4 -10 -10 -10 -5 0 -10 5 -10
10 0 6 5 10 10 10 6 0 10 -4 10 -10z m40 0 c0 -5 -4 -10 -10 -10 -5 0 -10 5
-10 10 0 6 5 10 10 10 6 0 10 -4 10 -10z m-240 -20 c0 -13 -11 -13 -30 0 -12
8 -11 10 8 10 12 0 22 -4 22 -10z m360 0 c0 -5 -9 -10 -20 -10 -11 0 -20 5
-20 10 0 6 9 10 20 10 11 0 20 -4 20 -10z m140 4 c0 -11 -29 -34 -44 -34 -9 0
-16 -8 -16 -20 0 -17 -7 -20 -40 -20 -22 0 -40 5 -40 10 0 6 5 10 10 10 6 0
10 9 10 20 0 17 7 20 40 20 22 0 40 5 40 10 0 6 9 10 20 10 11 0 20 -3 20 -6z
m40 -14 c0 -11 -4 -20 -10 -20 -5 0 -10 9 -10 20 0 11 5 20 10 20 6 0 10 -9
10 -20z m-300 -20 c0 -11 -4 -20 -10 -20 -5 0 -10 5 -10 10 0 6 -27 10 -60 10
-33 0 -60 -4 -60 -10 0 -5 -4 -10 -10 -10 -5 0 -10 9 -10 20 0 18 7 20 80 20
73 0 80 -2 80 -20z m-528 -80 c4 0 8 -7 8 -15 0 -9 20 -36 45 -60 l44 -45 82
0 c78 0 82 1 110 31 16 18 33 28 37 24 4 -4 1 -10 -5 -12 -7 -3 -13 -13 -13
-24 0 -12 -7 -19 -20 -19 -11 0 -20 -4 -20 -10 0 -5 -13 -10 -30 -10 -16 0
-30 -4 -30 -10 0 -5 -18 -10 -40 -10 -22 0 -40 5 -40 10 0 6 -11 10 -25 10
-27 0 -95 59 -95 82 0 8 -9 20 -20 28 -13 9 -20 25 -19 45 0 29 1 29 11 8 6
-13 15 -23 20 -23z m165 14 c14 -14 22 -28 19 -31 -3 -4 -14 4 -25 15 -10 12
-26 22 -35 22 -9 0 -16 5 -16 10 0 19 31 10 57 -16z m623 21 c0 -3 -11 -17
-25 -30 -29 -30 -35 -31 -35 -5 0 13 7 20 20 20 11 0 20 5 20 10 0 6 5 10 10
10 6 0 10 -2 10 -5z m140 -21 c0 -27 -26 -61 -38 -49 -4 4 -1 10 6 12 6 3 12
18 12 34 0 16 5 29 10 29 6 0 10 -12 10 -26z m-320 -84 l49 -50 81 0 c79 0 83
1 111 31 16 18 33 28 37 24 4 -4 1 -10 -5 -12 -7 -3 -13 -13 -13 -24 0 -12 -7
-19 -20 -19 -11 0 -20 -4 -20 -10 0 -5 -11 -10 -24 -10 -14 0 -28 -4 -31 -10
-3 -5 -21 -10 -40 -10 -19 0 -37 5 -40 10 -3 6 -17 10 -31 10 -29 0 -78 45
-68 62 5 7 3 8 -5 4 -13 -8 -40 20 -41 42 0 20 9 14 60 -38z m-640 20 c0 -5
-4 -10 -10 -10 -5 0 -10 5 -10 10 0 6 5 10 10 10 6 0 10 -4 10 -10z m460 4 c0
-3 -7 -12 -15 -21 -20 -19 -32 -10 -14 11 14 15 29 21 29 10z m80 -14 c0 -11
-4 -20 -10 -20 -5 0 -10 9 -10 20 0 11 5 20 10 20 6 0 10 -9 10 -20z m280 10
c0 -5 -4 -10 -10 -10 -5 0 -10 5 -10 10 0 6 5 10 10 10 6 0 10 -4 10 -10z
m-855 -160 c3 -5 15 -10 26 -10 23 0 109 -83 109 -105 0 -23 -8 -19 -60 35
-27 28 -56 50 -64 50 -9 0 -16 5 -16 10 0 6 -9 10 -20 10 -11 0 -20 5 -20 10
0 6 9 10 19 10 11 0 23 -4 26 -10z m235 0 c0 -5 -2 -10 -4 -10 -3 0 -8 5 -11
10 -3 6 -1 10 4 10 6 0 11 -4 11 -10z m840 4 c0 -11 -29 -34 -44 -34 -9 0 -16
-4 -16 -10 0 -5 -7 -10 -16 -10 -9 0 -29 -14 -45 -31 -16 -18 -32 -29 -35 -26
-9 9 83 97 101 97 8 0 15 5 15 10 0 6 9 10 20 10 11 0 20 -3 20 -6z m-540 -34
c0 -11 -4 -20 -10 -20 -5 0 -10 9 -10 20 0 11 5 20 10 20 6 0 10 -9 10 -20z
m7 -55 c8 -9 12 -19 8 -23 -4 -4 -10 -1 -12 6 -3 6 -13 12 -24 12 -10 0 -19 5
-19 10 0 15 30 12 47 -5z m-647 -55 c0 -5 -4 -10 -10 -10 -5 0 -10 5 -10 10 0
6 5 10 10 10 6 0 10 -4 10 -10z m1220 -6 c0 -8 5 -12 10 -9 6 3 10 1 10 -4 0
-6 -9 -11 -20 -11 -13 0 -20 7 -20 20 0 11 5 20 10 20 6 0 10 -7 10 -16z
m-1100 -14 c0 -5 -4 -10 -10 -10 -5 0 -10 5 -10 10 0 6 5 10 10 10 6 0 10 -4
10 -10z m20 -40 c0 -5 -4 -10 -10 -10 -5 0 -10 5 -10 10 0 6 5 10 10 10 6 0
10 -4 10 -10z m1120 -30 c0 -11 -4 -20 -10 -20 -5 0 -10 9 -10 20 0 11 5 20
10 20 6 0 10 -9 10 -20z m20 -50 c0 -5 -4 -10 -10 -10 -5 0 -10 5 -10 10 0 6
5 10 10 10 6 0 10 -4 10 -10z m-1120 -36 c0 -14 -4 -23 -10 -19 -5 3 -10 15
-10 26 0 10 5 19 10 19 6 0 10 -12 10 -26z m276 -11 c-10 -10 -19 5 -10 18 6
11 8 11 12 0 2 -7 1 -15 -2 -18z m-419 -40 c-3 -3 -13 1 -21 10 -8 8 -12 17
-9 20 3 3 12 -1 20 -9 9 -8 13 -18 10 -21z m823 27 c0 -5 -4 -10 -10 -10 -5 0
-10 5 -10 10 0 6 5 10 10 10 6 0 10 -4 10 -10z m300 0 c0 -5 -4 -10 -10 -10
-5 0 -10 5 -10 10 0 6 5 10 10 10 6 0 10 -4 10 -10z m160 4 c0 -3 -7 -12 -15
-21 -20 -19 -32 -10 -14 11 14 15 29 21 29 10z m-1160 -24 c0 -5 -4 -10 -10
-10 -5 0 -10 5 -10 10 0 6 5 10 10 10 6 0 10 -4 10 -10z m500 -50 c0 -11 -4
-20 -10 -20 -5 0 -10 9 -10 20 0 11 5 20 10 20 6 0 10 -9 10 -20z m-420 -25
c0 -18 -73 -75 -95 -75 -14 0 -25 -4 -25 -10 0 -5 -13 -10 -30 -10 -16 0 -30
5 -30 10 0 6 14 10 30 10 17 0 30 5 30 10 0 6 9 10 20 10 11 0 20 5 20 10 0 6
8 10 18 10 10 0 24 9 32 20 13 19 30 27 30 15z m842 -4 c2 -5 10 -11 18 -13 8
-2 22 -11 31 -20 9 -10 24 -18 33 -18 9 0 16 -4 16 -10 0 -15 58 -12 63 3 2 6
8 9 12 5 4 -4 0 -14 -8 -23 -17 -17 -67 -21 -67 -5 0 6 -11 10 -25 10 -22 0
-95 57 -95 75 0 9 18 6 22 -4z m-702 -41 c0 -5 -4 -10 -10 -10 -5 0 -10 5 -10
10 0 6 5 10 10 10 6 0 10 -4 10 -10z m780 -80 c0 -5 -4 -10 -10 -10 -5 0 -10
5 -10 10 0 6 5 10 10 10 6 0 10 -4 10 -10z m-1013 -105 c8 -9 13 -19 10 -22
-6 -5 -37 21 -37 31 0 10 11 6 27 -9z m1033 10 c0 -13 -91 -95 -105 -95 -8 0
-15 -4 -15 -10 0 -16 -129 -12 -146 4 -21 22 -17 26 26 26 22 0 40 -4 40 -10
0 -5 14 -10 30 -10 17 0 30 5 30 10 0 6 9 10 20 10 11 0 20 5 20 10 0 6 8 10
18 10 9 0 28 14 42 30 23 27 40 38 40 25z m-433 -30 c8 -9 13 -19 10 -22 -6
-5 -37 21 -37 31 0 10 11 6 27 -9z m-567 -15 c0 -5 9 -10 20 -10 11 0 20 -4
20 -9 0 -5 10 -11 23 -14 21 -3 20 -4 -6 -11 -22 -7 -31 -4 -46 13 -10 11 -24
21 -30 21 -7 0 -9 5 -6 10 3 6 10 10 16 10 5 0 9 -4 9 -10z m360 0 c0 -5 -4
-10 -10 -10 -5 0 -10 5 -10 10 0 6 5 10 10 10 6 0 10 -4 10 -10z m140 -20 c0
-16 5 -30 10 -30 6 0 10 -4 10 -10 0 -5 -9 -10 -20 -10 -13 0 -20 -7 -20 -20
0 -11 -4 -20 -10 -20 -5 0 -10 9 -10 20 0 13 -7 20 -20 20 -11 0 -20 5 -20 10
0 6 5 10 10 10 6 0 10 14 10 30 0 27 3 30 30 30 27 0 30 -3 30 -30z m-340 -10
c0 -11 5 -20 10 -20 6 0 10 5 10 10 0 6 9 10 20 10 11 0 20 -4 20 -10 0 -5 -9
-10 -20 -10 -11 0 -20 -4 -20 -10 0 -5 -13 -10 -30 -10 -16 0 -30 5 -30 10 0
6 5 10 10 10 6 0 10 9 10 20 0 11 5 20 10 20 6 0 10 -9 10 -20z m-60 -30 c0
-5 -9 -10 -20 -10 -11 0 -20 5 -20 10 0 6 9 10 20 10 11 0 20 -4 20 -10z m80
-40 c0 -5 -4 -10 -10 -10 -5 0 -10 5 -10 10 0 6 5 10 10 10 6 0 10 -4 10 -10z
m600 0 c0 -5 -4 -10 -10 -10 -5 0 -10 5 -10 10 0 6 5 10 10 10 6 0 10 -4 10
-10z m-280 -40 c0 -5 -4 -10 -10 -10 -5 0 -10 5 -10 10 0 6 5 10 10 10 6 0 10
-4 10 -10z m-40 -60 c0 -5 -4 -10 -10 -10 -5 0 -10 5 -10 10 0 6 5 10 10 10 6
0 10 -4 10 -10z m317 -7 c0 -21 -20 -43 -39 -43 -8 0 -20 -9 -28 -20 -8 -11
-22 -20 -32 -20 -10 0 -18 -4 -18 -10 0 -5 -13 -10 -30 -10 -16 0 -30 -4 -30
-10 0 -5 -12 -10 -26 -10 -17 0 -39 -14 -65 -41 -22 -23 -43 -39 -46 -36 -3 4
9 21 28 38 21 20 29 34 22 36 -7 3 -13 9 -13 14 0 6 4 8 9 4 5 -3 16 2 24 10
10 10 35 15 71 15 31 0 56 5 56 10 0 6 9 10 20 10 13 0 20 7 20 20 0 15 7 20
29 20 20 0 30 6 34 20 6 25 14 26 14 3z m-222 -13 c3 -5 -3 -10 -14 -10 -12 0
-21 5 -21 10 0 6 6 10 14 10 8 0 18 -4 21 -10z m-315 -30 c0 -16 7 -20 30 -20
17 0 30 -4 30 -10 0 -5 23 -10 50 -10 28 0 50 -4 50 -10 0 -5 9 -10 20 -10 24
0 25 -6 3 -28 -12 -12 -18 -13 -21 -4 -2 6 -17 12 -33 12 -16 0 -29 5 -29 10
0 6 -13 10 -30 10 -16 0 -30 5 -30 10 0 6 -9 10 -20 10 -11 0 -20 5 -20 10 0
6 -7 10 -15 10 -8 0 -15 5 -15 10 0 6 -7 10 -15 10 -8 0 -15 5 -15 10 0 6 14
10 30 10 23 0 30 -4 30 -20z m360 -10 c0 -5 -4 -10 -10 -10 -5 0 -10 5 -10 10
0 6 5 10 10 10 6 0 10 -4 10 -10z"/>
</g>
</svg>
